<svg xmlns="http://www.w3.org/2000/svg" width="49.59" height="50" viewBox="0 0 49.59 50">
  <metadata><?xpacket begin="﻿" id="W5M0MpCehiHzreSzNTczkc9d"?>
<x:xmpmeta xmlns:x="adobe:ns:meta/" x:xmptk="Adobe XMP Core 5.6-c138 79.159824, 2016/09/14-01:09:01        ">
   <rdf:RDF xmlns:rdf="http://www.w3.org/1999/02/22-rdf-syntax-ns#">
      <rdf:Description rdf:about=""/>
   </rdf:RDF>
</x:xmpmeta>
                                                                                                    
                                                                                                    
                                                                                                    
                                                                                                    
                                                                                                    
                                                                                                    
                                                                                                    
                                                                                                    
                                                                                                    
                                                                                                    
                                                                                                    
                                                                                                    
                                                                                                    
                                                                                                    
                                                                                                    
                                                                                                    
                                                                                                    
                                                                                                    
                                                                                                    
                                                                                                    
                           
<?xpacket end="w"?></metadata>
<defs>
    <style>
      .cls-1 {
        fill: #187aa7;
        fill-rule: evenodd;
      }
    </style>
  </defs>
  <path id="instruments" class="cls-1" d="M1216.78,1302.01a4.714,4.714,0,0,0,0,6.62,4.623,4.623,0,0,0,6.57,0l15.26-15.38-6.57-6.62Zm38.13-28.5,6.63-3.47,3.48-6.77-3.24-3.27-6.72,3.51-3.44,6.69-8.09,8.15,3.29,3.31Zm1.45,17.77-0.63-.06a9.024,9.024,0,0,0-3.21.61l-19.07-19.23a9.367,9.367,0,0,0,.6-3.24l-0.06-.63a9.294,9.294,0,0,0-9.23-8.73,9.17,9.17,0,0,0-3.98.93l6.17,6.23a3.017,3.017,0,0,1,.7,1.12,3.149,3.149,0,0,1-.7,3.29,3.076,3.076,0,0,1-2.19.92,3.04,3.04,0,0,1-1.07-.21,3.179,3.179,0,0,1-1.12-.71l-6.17-6.22a9.289,9.289,0,0,0,7.74,13.32l0.62,0.06a8.982,8.982,0,0,0,3.21-.61l19.07,19.23a9.367,9.367,0,0,0-.6,3.24l0.07,0.63a9.192,9.192,0,0,0,13.21,7.8l-6.18-6.23a3.205,3.205,0,0,1-.7-1.12,3.149,3.149,0,0,1,.7-3.29,3.076,3.076,0,0,1,2.19-.92,3.107,3.107,0,0,1,1.08.22,2.981,2.981,0,0,1,1.11.7l6.18,6.22A9.308,9.308,0,0,0,1256.36,1291.28Z" transform="translate(-1215.44 -1260)"/>
</svg>