<svg xmlns="http://www.w3.org/2000/svg" width="16.031" height="16" viewBox="0 0 16.031 16">
  <metadata><?xpacket begin="﻿" id="W5M0MpCehiHzreSzNTczkc9d"?>
<x:xmpmeta xmlns:x="adobe:ns:meta/" x:xmptk="Adobe XMP Core 5.6-c138 79.159824, 2016/09/14-01:09:01        ">
   <rdf:RDF xmlns:rdf="http://www.w3.org/1999/02/22-rdf-syntax-ns#">
      <rdf:Description rdf:about=""/>
   </rdf:RDF>
</x:xmpmeta>
                                                                                                    
                                                                                                    
                                                                                                    
                                                                                                    
                                                                                                    
                                                                                                    
                                                                                                    
                                                                                                    
                                                                                                    
                                                                                                    
                                                                                                    
                                                                                                    
                                                                                                    
                                                                                                    
                                                                                                    
                                                                                                    
                                                                                                    
                                                                                                    
                                                                                                    
                                                                                                    
                           
<?xpacket end="w"?></metadata>
<defs>
    <style>
      .cls-1 {
        fill: #187aa7;
        fill-rule: evenodd;
      }
    </style>
  </defs>
  <path id="phone" class="cls-1" d="M404.711,6522a1.245,1.245,0,0,0-1.878,0c-0.439.44-.879,0.88-1.31,1.32a0.252,0.252,0,0,1-.362.06c-0.284-.15-0.586-0.28-0.859-0.45a13.719,13.719,0,0,1-3.284-2.98,7.937,7.937,0,0,1-1.177-1.89,0.276,0.276,0,0,1,.066-0.35c0.439-.42.867-0.85,1.3-1.29a1.245,1.245,0,0,0,0-1.92c-0.343-.35-0.686-0.69-1.029-1.04s-0.7-.71-1.063-1.06a1.252,1.252,0,0,0-1.878.01c-0.443.43-.867,0.88-1.317,1.31a2.114,2.114,0,0,0-.672,1.44,6.125,6.125,0,0,0,.472,2.63,15.9,15.9,0,0,0,2.838,4.72,17.515,17.515,0,0,0,5.815,4.55,8.271,8.271,0,0,0,3.221.94,2.39,2.39,0,0,0,2.026-.77c0.376-.42.8-0.81,1.2-1.21a1.254,1.254,0,0,0,.007-1.91C406.12,6523.41,405.415,6522.71,404.711,6522Z" transform="translate(-391.25 -6512)"/>
</svg>