<svg id="SvgjsSvg1021" xmlns="http://www.w3.org/2000/svg" version="1.1" xmlns:xlink="http://www.w3.org/1999/xlink" xmlns:svgjs="http://svgjs.com/svgjs" width="21" height="21" viewBox="0 0 21 21"><title>phone</title><desc>Created with Avocode.</desc><defs id="SvgjsDefs1022"/><path id="SvgjsPath1023" d="M1068.06 1527.5C1067.33 1526.78 1066.4299999999998 1526.78 1065.71 1527.5C1065.16 1528.04 1064.6100000000001 1528.59 1064.07 1529.14C1063.9299999999998 1529.2900000000002 1063.8 1529.3200000000002 1063.62 1529.22C1063.27 1529.03 1062.8899999999999 1528.8700000000001 1062.55 1528.66C1060.96 1527.66 1059.6299999999999 1526.3700000000001 1058.45 1524.93C1057.8600000000001 1524.21 1057.3400000000001 1523.44 1056.98 1522.5700000000002C1056.9 1522.4 1056.92 1522.2800000000002 1057.06 1522.14C1057.61 1521.6100000000001 1058.1399999999999 1521.0700000000002 1058.6799999999998 1520.5200000000002C1059.4299999999998 1519.7700000000002 1059.4299999999998 1518.88 1058.6799999999998 1518.1200000000001C1058.2499999999998 1517.69 1057.82 1517.2700000000002 1057.3899999999999 1516.8300000000002C1056.9499999999998 1516.39 1056.5099999999998 1515.94 1056.07 1515.5100000000002C1055.34 1514.8000000000002 1054.4399999999998 1514.8000000000002 1053.72 1515.5100000000002C1053.17 1516.0500000000002 1052.64 1516.6100000000001 1052.07 1517.1500000000003C1051.55 1517.6400000000003 1051.29 1518.2400000000002 1051.24 1518.9500000000003C1051.15 1520.0900000000004 1051.43 1521.1800000000003 1051.83 1522.2300000000002C1052.6399999999999 1524.4200000000003 1053.87 1526.3600000000004 1055.37 1528.1300000000003C1057.3899999999999 1530.5400000000004 1059.81 1532.4400000000003 1062.6299999999999 1533.8100000000004C1063.8999999999999 1534.4300000000003 1065.2199999999998 1534.9100000000003 1066.6499999999999 1534.9800000000005C1067.6399999999999 1535.0400000000004 1068.4999999999998 1534.7900000000004 1069.1799999999998 1534.0200000000004C1069.6499999999999 1533.5000000000005 1070.1799999999998 1533.0200000000004 1070.6799999999998 1532.5200000000004C1071.4199999999998 1531.7700000000004 1071.4199999999998 1530.8700000000003 1070.6899999999998 1530.1300000000003C1069.82 1529.2500000000002 1068.9399999999998 1528.3700000000003 1068.0599999999997 1527.5000000000002Z " fill="#ffffff" fill-opacity="1" transform="matrix(1,0,0,1,-1051,-1514)"/></svg>