<svg xmlns="http://www.w3.org/2000/svg" width="55" height="55" viewBox="0 0 55 55">
  <metadata><?xpacket begin="﻿" id="W5M0MpCehiHzreSzNTczkc9d"?>
<x:xmpmeta xmlns:x="adobe:ns:meta/" x:xmptk="Adobe XMP Core 5.6-c138 79.159824, 2016/09/14-01:09:01        ">
   <rdf:RDF xmlns:rdf="http://www.w3.org/1999/02/22-rdf-syntax-ns#">
      <rdf:Description rdf:about=""/>
   </rdf:RDF>
</x:xmpmeta>
                                                                                                    
                                                                                                    
                                                                                                    
                                                                                                    
                                                                                                    
                                                                                                    
                                                                                                    
                                                                                                    
                                                                                                    
                                                                                                    
                                                                                                    
                                                                                                    
                                                                                                    
                                                                                                    
                                                                                                    
                                                                                                    
                                                                                                    
                                                                                                    
                                                                                                    
                                                                                                    
                           
<?xpacket end="w"?></metadata>
<defs>
    <style>
      .cls-1 {
        fill: #187aa7;
        stroke: #ededed;
        stroke-linejoin: round;
        stroke-width: 4px;
      }

      .cls-2 {
        fill: #fff;
        fill-rule: evenodd;
      }
    </style>
  </defs>
  <circle id="phone" class="cls-1" cx="27.094" cy="27.094" r="25"/>
  <path id="support" class="cls-2" d="M22.968,25.692A5.741,5.741,0,0,0,27.5,29.173a5.091,5.091,0,0,0,3.088-1.459q-0.592.042-1.266,0.042l-0.335,0a1.3,1.3,0,0,1-.8.279h-0.96a1.337,1.337,0,0,1,0-2.674h0.96a1.293,1.293,0,0,1,.911.376h0.236a10.435,10.435,0,0,0,2.589-.256,1.482,1.482,0,0,1-.107-0.556V21.535a1.475,1.475,0,0,1,.35-0.952,5.568,5.568,0,0,0-.654-2.187c-0.661-1.091-1.936-1.6-4.012-1.6a4.872,4.872,0,0,0-3.636,1.114,4.407,4.407,0,0,0-1.039,2.662,1.471,1.471,0,0,1,.358.961v3.389A1.465,1.465,0,0,1,22.968,25.692Zm-2.359.032h1.151a0.793,0.793,0,0,0,.785-0.8V21.535a0.8,0.8,0,0,0-.391-0.691c0.257-2.775,1.308-4.7,5.346-4.7,2.319,0,3.767.606,4.556,1.908a6.688,6.688,0,0,1,.783,2.795,0.8,0.8,0,0,0-.384.687v3.389a0.8,0.8,0,0,0,.611.78,6.99,6.99,0,0,1-3.733.684q-0.264,0-.551-0.007a0.67,0.67,0,0,0-.6-0.37h-0.96a0.685,0.685,0,0,0,0,1.37h0.96a0.666,0.666,0,0,0,.544-0.285c0.2,0.005.4,0.009,0.591,0.009,2.452,0,4.011-.427,4.642-1.273,0.027-.036.051-0.072,0.074-0.107h0.355a0.793,0.793,0,0,0,.785-0.8V21.535a0.793,0.793,0,0,0-.785-0.8H33.959a7.6,7.6,0,0,0-.947-3.283C32.012,15.8,30.209,15,27.5,15s-4.512.8-5.512,2.451a7.608,7.608,0,0,0-.947,3.283H20.608a0.793,0.793,0,0,0-.785.8v3.389A0.793,0.793,0,0,0,20.608,25.724ZM36.99,35.691c-0.261-1.654-.8-3.785-1.876-4.542-0.735-.517-3.3-1.914-4.4-2.51L30.7,28.626a0.352,0.352,0,0,0-.39.035,4.623,4.623,0,0,1-1.87.921,0.36,0.36,0,0,0-.257.227L27.5,31.632l-0.679-1.823a0.36,0.36,0,0,0-.257-0.227,4.625,4.625,0,0,1-1.87-.921,0.352,0.352,0,0,0-.39-0.035c-1.083.59-3.682,2.017-4.415,2.521-1.241.852-1.783,3.935-1.879,4.544a0.372,0.372,0,0,0,.016.18C18.07,36,19.208,39,27.5,39s9.43-3,9.474-3.129A0.372,0.372,0,0,0,36.99,35.691Zm-3.861-1.9H29.846v-0.7H33.13v0.7Z"/>
</svg>