<svg xmlns="http://www.w3.org/2000/svg" width="49.97" height="25" viewBox="0 0 49.97 25">
  <metadata><?xpacket begin="﻿" id="W5M0MpCehiHzreSzNTczkc9d"?>
<x:xmpmeta xmlns:x="adobe:ns:meta/" x:xmptk="Adobe XMP Core 5.6-c138 79.159824, 2016/09/14-01:09:01        ">
   <rdf:RDF xmlns:rdf="http://www.w3.org/1999/02/22-rdf-syntax-ns#">
      <rdf:Description rdf:about=""/>
   </rdf:RDF>
</x:xmpmeta>
                                                                                                    
                                                                                                    
                                                                                                    
                                                                                                    
                                                                                                    
                                                                                                    
                                                                                                    
                                                                                                    
                                                                                                    
                                                                                                    
                                                                                                    
                                                                                                    
                                                                                                    
                                                                                                    
                                                                                                    
                                                                                                    
                                                                                                    
                                                                                                    
                                                                                                    
                                                                                                    
                           
<?xpacket end="w"?></metadata>
<defs>
    <style>
      .cls-1 {
        fill: #187aa7;
        fill-rule: evenodd;
      }
    </style>
  </defs>
  <path id="van" class="cls-1" d="M1216.1,1033.56h0.23v-12.41a3.171,3.171,0,0,1,3.19-3.15h31a1.428,1.428,0,0,1,.29.03,1.1,1.1,0,0,1,.72.54l1.53,2.8,2.16,3.76a0.622,0.622,0,0,0,.26.09l4.67,0.48a2.9,2.9,0,0,1,2.64,2.88v4.98h1.11a1.1,1.1,0,0,1,1.08,1.29l-0.66,3.55a1.1,1.1,0,0,1-1.09.89h-3.12a4.877,4.877,0,0,1-9.47,0h-20.15a4.877,4.877,0,0,1-9.47,0h-4.92a1.1,1.1,0,0,1-1.1-1.09v-3.55A1.1,1.1,0,0,1,1216.1,1033.56Zm39.28,7.26a2.615,2.615,0,1,0-2.66-2.62A2.635,2.635,0,0,0,1255.38,1040.82Zm-11.4-16.9a0.86,0.86,0,0,0,.86.86h7.64l-2.64-4.6h-5.86v3.74h0Zm-11.04,9.13a1.3,1.3,0,0,0,.93.38,1.283,1.283,0,0,0,.93-0.38,1.268,1.268,0,0,0,0-1.83l-4.7-4.64a3.332,3.332,0,0,0-.74-3.66,3.4,3.4,0,0,0-2.59-.98,0.539,0.539,0,0,0-.36.92l1.35,1.33a0.238,0.238,0,0,1,.07.17,0.234,0.234,0,0,1-.07.16l-1.61,1.58a0.238,0.238,0,0,1-.17.07,0.272,0.272,0,0,1-.17-0.07l-1.34-1.32a0.558,0.558,0,0,0-.59-0.12,0.532,0.532,0,0,0-.35.48,3.337,3.337,0,0,0,.99,2.55,3.444,3.444,0,0,0,2.42.98,3.619,3.619,0,0,0,1.3-.25Zm-7.18,7.77a2.615,2.615,0,1,0-2.66-2.62A2.635,2.635,0,0,0,1225.76,1040.82Z" transform="translate(-1215 -1018)"/>
</svg>