<svg xmlns="http://www.w3.org/2000/svg" width="50.312" height="50" viewBox="0 0 50.312 50">
  <metadata><?xpacket begin="﻿" id="W5M0MpCehiHzreSzNTczkc9d"?>
<x:xmpmeta xmlns:x="adobe:ns:meta/" x:xmptk="Adobe XMP Core 5.6-c138 79.159824, 2016/09/14-01:09:01        ">
   <rdf:RDF xmlns:rdf="http://www.w3.org/1999/02/22-rdf-syntax-ns#">
      <rdf:Description rdf:about=""/>
   </rdf:RDF>
</x:xmpmeta>
                                                                                                    
                                                                                                    
                                                                                                    
                                                                                                    
                                                                                                    
                                                                                                    
                                                                                                    
                                                                                                    
                                                                                                    
                                                                                                    
                                                                                                    
                                                                                                    
                                                                                                    
                                                                                                    
                                                                                                    
                                                                                                    
                                                                                                    
                                                                                                    
                                                                                                    
                                                                                                    
                           
<?xpacket end="w"?></metadata>
<defs>
    <style>
      .cls-1 {
        fill: #187aa7;
        fill-rule: evenodd;
      }
    </style>
  </defs>
  <path id="clock" class="cls-1" d="M858.323,1013.4l3.556,3.52a0.878,0.878,0,0,0,1.227,0,6.949,6.949,0,0,0,0-9.88,7.108,7.108,0,0,0-9.968,0,0.857,0.857,0,0,0,0,1.22l3.959,3.92-1.475,1.46a23.545,23.545,0,0,0-31.246,0l-1.474-1.46,3.959-3.92a0.859,0.859,0,0,0,0-1.22,7.11,7.11,0,0,0-9.969,0,6.949,6.949,0,0,0,0,9.88,0.878,0.878,0,0,0,1.227,0l3.555-3.52,1.455,1.44a23.045,23.045,0,0,0,5,36.09l-2.628,2.6a0.865,0.865,0,0,0,1.227,1.22l3-2.97a23.569,23.569,0,0,0,20.56,0l2.994,2.97a0.865,0.865,0,0,0,1.227-1.22l-2.628-2.6a23.044,23.044,0,0,0,5-36.09Zm-36.552,18.28H820.9a0.86,0.86,0,1,1,0-1.72h0.868A0.86,0.86,0,1,1,821.771,1031.68Zm5.952,12.52-0.613.61a0.879,0.879,0,0,1-1.228,0,0.859,0.859,0,0,1,0-1.22l0.614-.61a0.884,0.884,0,0,1,1.227,0A0.857,0.857,0,0,1,827.723,1044.2Zm0-25.54a0.878,0.878,0,0,1-1.227,0l-0.614-.61a0.847,0.847,0,0,1,0-1.21,0.867,0.867,0,0,1,1.228,0l0.613,0.61A0.845,0.845,0,0,1,827.723,1018.66Zm11.408-6.75a0.868,0.868,0,0,1,1.736,0v0.86a0.868,0.868,0,0,1-1.736,0v-0.86Zm1.736,37.83a0.868,0.868,0,0,1-1.736,0v-0.86a0.868,0.868,0,0,1,1.736,0v0.86Zm8.68-17.95h-6.2a3.461,3.461,0,1,1-4.217-4.18v-8.72a0.868,0.868,0,0,1,1.736,0v8.72a3.439,3.439,0,0,1,2.481,2.46h6.2A0.86,0.86,0,1,1,849.547,1031.79Zm4.568,13.02a0.878,0.878,0,0,1-1.227,0l-0.614-.61a0.859,0.859,0,0,1,0-1.22,0.884,0.884,0,0,1,1.227,0l0.614,0.61A0.859,0.859,0,0,1,854.115,1044.81Zm0-26.76-0.614.61a0.878,0.878,0,0,1-1.227,0,0.847,0.847,0,0,1,0-1.21l0.614-.61a0.866,0.866,0,0,1,1.227,0A0.847,0.847,0,0,1,854.115,1018.05Zm4.112,11.91H859.1a0.86,0.86,0,1,1,0,1.72h-0.868A0.86,0.86,0,1,1,858.227,1029.96ZM840,1029.21a1.72,1.72,0,1,1-1.736,1.72A1.728,1.728,0,0,1,840,1029.21Z" transform="translate(-814.844 -1005)"/>
</svg>