<svg xmlns="http://www.w3.org/2000/svg" width="43.031" height="60" viewBox="0 0 43.031 60">
  <metadata><?xpacket begin="﻿" id="W5M0MpCehiHzreSzNTczkc9d"?>
<x:xmpmeta xmlns:x="adobe:ns:meta/" x:xmptk="Adobe XMP Core 5.6-c138 79.159824, 2016/09/14-01:09:01        ">
   <rdf:RDF xmlns:rdf="http://www.w3.org/1999/02/22-rdf-syntax-ns#">
      <rdf:Description rdf:about=""/>
   </rdf:RDF>
</x:xmpmeta>
                                                                                                    
                                                                                                    
                                                                                                    
                                                                                                    
                                                                                                    
                                                                                                    
                                                                                                    
                                                                                                    
                                                                                                    
                                                                                                    
                                                                                                    
                                                                                                    
                                                                                                    
                                                                                                    
                                                                                                    
                                                                                                    
                                                                                                    
                                                                                                    
                                                                                                    
                                                                                                    
                           
<?xpacket end="w"?></metadata>
<defs>
    <style>
      .cls-1 {
        fill: #187aa7;
        fill-rule: evenodd;
      }
    </style>
  </defs>
  <path id="employer" class="cls-1" d="M438.534,1000a4.94,4.94,0,1,1-5,4.94A4.967,4.967,0,0,1,438.534,1000Zm-1.752,52.68h-4.626v4.46a2.893,2.893,0,0,0,5.786,0v-4.61A4.445,4.445,0,0,1,436.782,1052.68Zm24.131-33.64a0.225,0.225,0,0,0-.413.01l-0.468,1.24-1.854.31-1.2-1.43,0.468-1.24a0.224,0.224,0,0,0-.305-0.28,2.781,2.781,0,0,0-1.422,1.53,2.743,2.743,0,0,0,.63,2.91l-0.93,2.46-4.665-1.73-0.026-5.76a5.687,5.687,0,0,0-5.7-5.61H432.084a5.687,5.687,0,0,0-5.706,5.61c-0.095,18.84-.095,17.57-0.075,17.76a1.552,1.552,0,0,0-1.605,1.54v2.26h-4.079a2.49,2.49,0,0,0-2.5,2.48v7.04a2.488,2.488,0,0,0,2.5,2.47h16.163a2.488,2.488,0,0,0,2.5-2.47v-7.04a2.49,2.49,0,0,0-2.5-2.48H432.7v-2.26a1.549,1.549,0,0,0-1.6-1.54c0.018-.17.006,1.1,0.1-17.73,0-.03,0-0.06,0-0.08a0.506,0.506,0,0,1,1.011,0v16.43a3.119,3.119,0,0,1,2.077,3.11h2.5a4.453,4.453,0,0,1,1.161.15v-2.41h1.249v2.94a4.528,4.528,0,0,1,2.185,3.87v7.04a4.524,4.524,0,0,1-2.185,3.86v5.14a2.893,2.893,0,0,0,5.786,0v-40.05a0.466,0.466,0,0,1,.931-0.01h0l0.034,7.4a2.375,2.375,0,0,0,1.562,2.22l6.229,2.32-0.44,1.16a0.962,0.962,0,0,0,.569,1.24l0.4,0.14a0.964,0.964,0,0,0,1.247-.56l0.469-1.24a2.41,2.41,0,0,0,2.475-1.53,2.364,2.364,0,0,0-.849-2.77l0.962-2.55a2.793,2.793,0,0,0,2.4-1.79A2.734,2.734,0,0,0,460.913,1019.04Zm-23.9,22.18a0.78,0.78,0,1,1,0,1.56h-6.9v1.44a0.593,0.593,0,0,1-.6.59h-1.613a0.593,0.593,0,0,1-.6-0.59v-1.44h-7.144a0.78,0.78,0,1,1,0-1.56h16.864Zm-5.894-4.67v2.07h-4.838v-2.07h1.071a2.363,2.363,0,0,0,1.336.41H428.7a2.4,2.4,0,0,0,1.348-.41h1.07Z" transform="translate(-418.125 -1000)"/>
</svg>