<svg xmlns="http://www.w3.org/2000/svg" width="40.063" height="50.03" viewBox="0 0 40.063 50.03">
  <metadata><?xpacket begin="﻿" id="W5M0MpCehiHzreSzNTczkc9d"?>
<x:xmpmeta xmlns:x="adobe:ns:meta/" x:xmptk="Adobe XMP Core 5.6-c138 79.159824, 2016/09/14-01:09:01        ">
   <rdf:RDF xmlns:rdf="http://www.w3.org/1999/02/22-rdf-syntax-ns#">
      <rdf:Description rdf:about=""/>
   </rdf:RDF>
</x:xmpmeta>
                                                                                                    
                                                                                                    
                                                                                                    
                                                                                                    
                                                                                                    
                                                                                                    
                                                                                                    
                                                                                                    
                                                                                                    
                                                                                                    
                                                                                                    
                                                                                                    
                                                                                                    
                                                                                                    
                                                                                                    
                                                                                                    
                                                                                                    
                                                                                                    
                                                                                                    
                                                                                                    
                           
<?xpacket end="w"?></metadata>
<defs>
    <style>
      .cls-1 {
        fill: #187aa7;
        fill-rule: evenodd;
      }
    </style>
  </defs>
  <path id="pointer" class="cls-1" d="M439.328,1265a19.953,19.953,0,0,0-18.951,23.73h0s0.031,0.22.133,0.63a20.007,20.007,0,0,0,1.349,3.96c2.007,4.73,6.65,12.66,17.068,21.29a1.753,1.753,0,0,0,2.223,0c10.418-8.62,15.06-16.54,17.078-21.3a19.179,19.179,0,0,0,1.349-3.96c0.092-.4.134-0.63,0.134-0.63h0A19.961,19.961,0,0,0,439.328,1265Zm0.71,29.87a9.7,9.7,0,1,1,9.728-9.7A9.712,9.712,0,0,1,440.038,1294.87Z" transform="translate(-420 -1265)"/>
</svg>