<svg xmlns="http://www.w3.org/2000/svg" width="48.969" height="50.03" viewBox="0 0 48.969 50.03">
  <metadata><?xpacket begin="﻿" id="W5M0MpCehiHzreSzNTczkc9d"?>
<x:xmpmeta xmlns:x="adobe:ns:meta/" x:xmptk="Adobe XMP Core 5.6-c138 79.159824, 2016/09/14-01:09:01        ">
   <rdf:RDF xmlns:rdf="http://www.w3.org/1999/02/22-rdf-syntax-ns#">
      <rdf:Description rdf:about=""/>
   </rdf:RDF>
</x:xmpmeta>
                                                                                                    
                                                                                                    
                                                                                                    
                                                                                                    
                                                                                                    
                                                                                                    
                                                                                                    
                                                                                                    
                                                                                                    
                                                                                                    
                                                                                                    
                                                                                                    
                                                                                                    
                                                                                                    
                                                                                                    
                                                                                                    
                                                                                                    
                                                                                                    
                                                                                                    
                                                                                                    
                           
<?xpacket end="w"?></metadata>
<defs>
    <style>
      .cls-1 {
        fill: #187aa7;
        fill-rule: evenodd;
      }
    </style>
  </defs>
  <path id="thumbs_up" data-name="thumbs up" class="cls-1" d="M843.055,1265c-2.3,0-1.527,4.94-1.527,4.94s-4.914,13.61-9.615,17.24a10.382,10.382,0,0,0-2.035,3.19h0c-0.091.24-.173,0.46-0.244,0.67a6.142,6.142,0,0,1-2.421,2.5l4.7,20.53a111.2,111.2,0,0,0,14.571.8,31.038,31.038,0,0,0,8.475-.28c8.364-1.79,6.268-7.64,6.268-7.64,4.507-3.4,1.943-7.65,1.943-7.65,4.009-4.2.071-7.73,0.071-7.73s2.168-3.39-.63-5.96c-3.49-3.21-12.963-1.07-12.963-1.07h0c-0.661.11-1.364,0.25-2.116,0.44,0,0-3.277,1.53,0-8.45S845.354,1265,843.055,1265Zm-14.52,47.59-3.561-16.99a2.326,2.326,0,0,0-2.167-1.77h-6.8L816,1314.35h11.1A1.4,1.4,0,0,0,828.535,1312.59Z" transform="translate(-816 -1265)"/>
</svg>